<svg id="Calque_1" data-name="Calque 1" xmlns="http://www.w3.org/2000/svg" viewBox="0 0 39.36 24"><defs><style>.cls-1{fill:#fff;}</style></defs><ellipse class="cls-1" cx="19.68" cy="12" rx="19.68" ry="12"/><path d="M6.16,24.61a.32.32,0,0,1,.07.22.34.34,0,0,1-.14.28.64.64,0,0,1-.4.1H5v-1.4h.62A.63.63,0,0,1,6,23.9a.33.33,0,0,1,.14.27.31.31,0,0,1-.06.19.3.3,0,0,1-.13.12A.36.36,0,0,1,6.16,24.61ZM5.23,24v.45h.41a.37.37,0,0,0,.23-.06A.19.19,0,0,0,6,24.19.17.17,0,0,0,5.87,24,.37.37,0,0,0,5.64,24Zm.71,1A.19.19,0,0,0,6,24.81c0-.15-.12-.23-.35-.23H5.23v.47h.45A.45.45,0,0,0,5.94,25Z" transform="translate(-1 -9)"/><path d="M6.79,25.13a.68.68,0,0,1-.27-.26.72.72,0,0,1-.1-.36.71.71,0,0,1,.37-.63.85.85,0,0,1,.76,0,.84.84,0,0,1,.27.26.81.81,0,0,1,0,.74.72.72,0,0,1-.27.25.85.85,0,0,1-.76,0ZM7.45,25a.61.61,0,0,0,.19-.2.5.5,0,0,0,.07-.27.53.53,0,0,0-.07-.28A.58.58,0,0,0,7.45,24,.53.53,0,0,0,7.17,24a.55.55,0,0,0-.28.07.5.5,0,0,0-.19.19.53.53,0,0,0-.07.28.5.5,0,0,0,.07.27.52.52,0,0,0,.19.2.68.68,0,0,0,.28.07A.64.64,0,0,0,7.45,25Z" transform="translate(-1 -9)"/><path d="M8.36,25.06a.62.62,0,0,1-.15-.46v-.79h.2v.78c0,.31.13.46.39.46a.36.36,0,0,0,.29-.12.46.46,0,0,0,.1-.34v-.78h.2v.79a.59.59,0,0,1-.16.46.56.56,0,0,1-.43.16A.57.57,0,0,1,8.36,25.06Z" transform="translate(-1 -9)"/><path d="M10.05,24H9.57v-.17h1.16V24h-.48v1.23h-.2Z" transform="translate(-1 -9)"/><path d="M11,23.81h.2v1.4H11Z" transform="translate(-1 -9)"/><path d="M13,25.34a.61.61,0,0,1-.16.12.43.43,0,0,1-.19,0,.51.51,0,0,1-.25-.06,1,1,0,0,1-.27-.22.76.76,0,0,1-.6-.36.7.7,0,0,1-.09-.35.66.66,0,0,1,.1-.37.68.68,0,0,1,.27-.26.79.79,0,0,1,.38-.09.82.82,0,0,1,.38.09.72.72,0,0,1,.26.26.66.66,0,0,1,.1.37.71.71,0,0,1-.07.32.88.88,0,0,1-.19.24.76.76,0,0,1-.29.13.45.45,0,0,0,.14.11.28.28,0,0,0,.13,0,.32.32,0,0,0,.25-.12Zm-1.29-.56a.64.64,0,0,0,.2.2.64.64,0,0,0,.28.07.6.6,0,0,0,.27-.07.55.55,0,0,0,.2-.2.6.6,0,0,0,.07-.27.64.64,0,0,0-.07-.28.52.52,0,0,0-.2-.19A.5.5,0,0,0,12.2,24a.53.53,0,0,0-.28.07.61.61,0,0,0-.2.19.64.64,0,0,0-.07.28A.6.6,0,0,0,11.72,24.78Z" transform="translate(-1 -9)"/><path d="M13.39,25.06a.59.59,0,0,1-.16-.46v-.79h.2v.78c0,.31.13.46.4.46a.37.37,0,0,0,.29-.12.46.46,0,0,0,.1-.34v-.78h.2v.79a.62.62,0,0,1-.16.46.57.57,0,0,1-.44.16A.56.56,0,0,1,13.39,25.06Z" transform="translate(-1 -9)"/><path d="M15.84,25v.18h-1v-1.4h1V24H15v.43h.7v.17H15V25Z" transform="translate(-1 -9)"/><path d="M17.91,23.81v1.4h-.2v-.63H16.9v.63h-.2v-1.4h.2v.6h.81v-.6Z" transform="translate(-1 -9)"/><path d="M18.58,25.13a.62.62,0,0,1-.27-.26.63.63,0,0,1-.1-.36.66.66,0,0,1,.1-.37.68.68,0,0,1,.27-.26.79.79,0,0,1,.38-.09.82.82,0,0,1,.38.09.72.72,0,0,1,.26.26.73.73,0,0,1,0,.74.63.63,0,0,1-.26.25.82.82,0,0,1-.38.09A.79.79,0,0,1,18.58,25.13Zm.65-.15a.55.55,0,0,0,.2-.2.6.6,0,0,0,.07-.27.64.64,0,0,0-.07-.28.52.52,0,0,0-.2-.19A.5.5,0,0,0,19,24a.51.51,0,0,0-.28.07.52.52,0,0,0-.2.19.53.53,0,0,0-.07.28.5.5,0,0,0,.07.27.55.55,0,0,0,.2.2.61.61,0,0,0,.28.07A.6.6,0,0,0,19.23,25Zm-.09-1.29L19,23.54l-.19.15H18.6l.26-.25h.19l.26.25Z" transform="translate(-1 -9)"/><path d="M20.26,24h-.48v-.17h1.16V24h-.48v1.23h-.2Z" transform="translate(-1 -9)"/><path d="M22.17,25v.18h-1v-1.4h1V24h-.78v.43h.7v.17h-.7V25Z" transform="translate(-1 -9)"/><path d="M22.5,23.81h.19V25h.76v.18H22.5Z" transform="translate(-1 -9)"/><path d="M24.47,25.13a.65.65,0,0,1-.27-.25.72.72,0,0,1,.27-1,.79.79,0,0,1,.38-.09.73.73,0,0,1,.3.06.53.53,0,0,1,.23.16l-.13.13a.5.5,0,0,0-.39-.17.57.57,0,0,0-.29.07.5.5,0,0,0-.19.19.53.53,0,0,0-.07.28.5.5,0,0,0,.07.27.52.52,0,0,0,.19.2.69.69,0,0,0,.29.07.54.54,0,0,0,.39-.17l.13.12a.55.55,0,0,1-.23.17,1,1,0,0,1-.3,0A.79.79,0,0,1,24.47,25.13Z" transform="translate(-1 -9)"/><path d="M25.88,25.13a.65.65,0,0,1-.26-.26.63.63,0,0,1-.1-.36.66.66,0,0,1,.1-.37.72.72,0,0,1,.26-.26.86.86,0,0,1,.39-.09.82.82,0,0,1,.38.09.72.72,0,0,1,.26.26.73.73,0,0,1,0,.74.63.63,0,0,1-.26.25.82.82,0,0,1-.38.09A.86.86,0,0,1,25.88,25.13Zm.66-.15a.55.55,0,0,0,.2-.2.6.6,0,0,0,.07-.27.64.64,0,0,0-.07-.28.52.52,0,0,0-.2-.19.5.5,0,0,0-.27-.07A.53.53,0,0,0,26,24a.52.52,0,0,0-.2.19.53.53,0,0,0-.07.28.5.5,0,0,0,.07.27.55.55,0,0,0,.2.2.64.64,0,0,0,.28.07A.6.6,0,0,0,26.54,25Z" transform="translate(-1 -9)"/><path d="M27.31,23.81h.2V25h.76v.18h-1Z" transform="translate(-1 -9)"/><path d="M28.5,23.81h.2V25h.76v.18h-1Z" transform="translate(-1 -9)"/><path d="M30.7,25v.18h-1v-1.4h1V24h-.79v.43h.7v.17h-.7V25Z" transform="translate(-1 -9)"/><path d="M31.27,25.13a.72.72,0,0,1-.27-.25.81.81,0,0,1,0-.74.84.84,0,0,1,.27-.26.79.79,0,0,1,.38-.09.73.73,0,0,1,.3.06.53.53,0,0,1,.23.16l-.13.13a.49.49,0,0,0-.39-.17.57.57,0,0,0-.29.07.58.58,0,0,0-.19.19.53.53,0,0,0-.07.28.5.5,0,0,0,.07.27.61.61,0,0,0,.19.2.69.69,0,0,0,.29.07.54.54,0,0,0,.39-.17l.13.12a.55.55,0,0,1-.23.17,1,1,0,0,1-.3,0A.79.79,0,0,1,31.27,25.13Z" transform="translate(-1 -9)"/><path d="M32.73,24h-.48v-.17H33.4V24h-.48v1.23h-.19Z" transform="translate(-1 -9)"/><path d="M33.62,23.81h.2v1.4h-.2Z" transform="translate(-1 -9)"/><path d="M34.49,25.13a.75.75,0,0,1-.27-.26.71.71,0,0,1-.09-.36.75.75,0,0,1,.09-.37.84.84,0,0,1,.27-.26.82.82,0,0,1,.38-.09.86.86,0,0,1,.39.09.81.81,0,0,1,.26.26.81.81,0,0,1,0,.74.69.69,0,0,1-.26.25.86.86,0,0,1-.39.09A.82.82,0,0,1,34.49,25.13Zm.66-.15a.52.52,0,0,0,.19-.2.5.5,0,0,0,.08-.27.54.54,0,0,0-.08-.28.5.5,0,0,0-.19-.19.51.51,0,0,0-.28-.07.5.5,0,0,0-.27.07.52.52,0,0,0-.2.19.53.53,0,0,0-.07.28.5.5,0,0,0,.07.27.55.55,0,0,0,.2.2.6.6,0,0,0,.27.07A.61.61,0,0,0,35.15,25Z" transform="translate(-1 -9)"/><path d="M37.13,23.81v1.4H37l-.84-1v1h-.2v-1.4h.16l.85,1v-1Z" transform="translate(-1 -9)"/><path d="M21.48,20.88V18.72H19.14v2.16c0,.08,0,.11.11.11h.37v.15H18V21h.38a.1.1,0,0,0,.11-.11V16.33c0-.07,0-.1-.11-.1H18v-.14h1.63v.14h-.37a.1.1,0,0,0-.11.11V18.5h2.34V16.34c0-.07,0-.11-.12-.11H21v-.14h1.63v.14h-.37c-.08,0-.12,0-.12.1v4.55c0,.08,0,.11.12.11h.37v.15H21V21h.37C21.44,21,21.48,21,21.48,20.88Z" transform="translate(-1 -9)"/><path d="M20.6,21.92v-.1c0-.11-.05-.16-.13-.16a.77.77,0,0,0-.23.08,2.28,2.28,0,0,1-1.05.27,2.25,2.25,0,0,1-1.66-.65,2.39,2.39,0,0,1-.64-1.77,2.42,2.42,0,0,1,.63-1.77,2.25,2.25,0,0,1,1.67-.65,2.46,2.46,0,0,1,1,.24.6.6,0,0,0,.24.09c.08,0,.12-.06.13-.16v-.13h.15v1.28h-.14a1.15,1.15,0,0,0-.47-.84,1.62,1.62,0,0,0-1-.27A1.4,1.4,0,0,0,18,18a2.66,2.66,0,0,0-.44,1.62A2.59,2.59,0,0,0,18,21.21a1.4,1.4,0,0,0,1.17.58,1.62,1.62,0,0,0,1-.27,1.15,1.15,0,0,0,.47-.84h.14v1.24Z" transform="translate(-1 -9)"/><rect class="cls-1" x="17.08" y="7.38" width="0.4" height="2.67"/><path d="M21.47,21.62l.16.09,0,.06-.16-.1v.19h-.07v-.19l-.16.1,0-.06.16-.09-.16-.1,0-.05.16.1v-.19h.07v.19l.16-.1,0,.05Z" transform="translate(-1 -9)"/><path d="M22,21.62l.17.09,0,.06-.16-.1v.19h-.06v-.19l-.17.1,0-.06.17-.09-.17-.1,0-.05.17.1v-.19H22v.19l.16-.1,0,.05Z" transform="translate(-1 -9)"/><path d="M22.55,21.62l.17.09,0,.06-.16-.1v.19h-.06v-.19l-.17.1,0-.06.17-.09-.17-.1,0-.05.17.1v-.19h.06v.19l.16-.1,0,.05Z" transform="translate(-1 -9)"/><path d="M23.09,21.62l.17.09,0,.06-.17-.1v.19H23v-.19l-.17.1,0-.06.17-.09-.17-.1,0-.05.17.1v-.19h.06v.19l.17-.1,0,.05Z" transform="translate(-1 -9)"/><path d="M23.64,21.62l.16.09,0,.06-.17-.1v.19h-.06v-.19l-.16.1,0-.06.17-.09-.17-.1,0-.05.16.1v-.19h.06v.19l.17-.1,0,.05Z" transform="translate(-1 -9)"/><path d="M12.55,20.55H11.47v1.18h1.08a.05.05,0,0,0,.06-.06v-.19h.07v.82h-.08v-.18s0-.06,0-.06l-2.29,0s0,0,0,.06v.18h-.07V21.5h.08v.19s0,.06,0,.06h1.09V20.56H10.28a.05.05,0,0,0-.06.06v.19h-.07V20h.08v.18s0,.06,0,.06l2.28,0a.05.05,0,0,0,.06-.06V20h.07v.83h-.07v-.19A.05.05,0,0,0,12.55,20.55Z" transform="translate(-1 -9)"/><path d="M10.67,18.11a.21.21,0,0,1-.07-.21c0-.06.08-.1.18-.11l.6-.06,0,.08-.56.18.33.49-.07,0Zm2,1.14a.92.92,0,0,1-.71,0,1,1,0,0,1-.57-.43.77.77,0,0,1,0-.63.79.79,0,0,1,.43-.48,1,1,0,0,1,.71,0,1,1,0,0,1,.56.44.73.73,0,0,1,0,.63A.78.78,0,0,1,12.69,19.25Zm-1.14-.63a1.1,1.1,0,0,0,.53.33,1.07,1.07,0,0,0,.62.07.46.46,0,0,0,.33-.27.47.47,0,0,0-.09-.42,1.19,1.19,0,0,0-.53-.34,1.16,1.16,0,0,0-.62-.06.46.46,0,0,0-.33.27A.42.42,0,0,0,11.55,18.62Z" transform="translate(-1 -9)"/><path d="M12.11,15.85l0,0,.36.23.22-.33.06,0-.23.34,1.14.75c.13.08.21.09.25,0a.11.11,0,0,0,0-.11.13.13,0,0,0-.08-.1.24.24,0,0,0-.11-.06l0-.08.12.07a.26.26,0,0,1,.14.19A.31.31,0,0,1,14,17a.29.29,0,0,1-.22.13.52.52,0,0,1-.34-.12l-1-.66s-.06,0-.08,0l-.11.16-.06,0,.11-.16C12.36,16.25,12.29,16.09,12.11,15.85Z" transform="translate(-1 -9)"/><path d="M13.93,14.31a.55.55,0,0,1,.44-.17.8.8,0,0,1,.49.3l.11.12-.82.74,0,0a1.07,1.07,0,0,0,.52.35.4.4,0,0,0,.41-.08.5.5,0,0,0,.18-.32.49.49,0,0,0-.07-.37l.07,0a.61.61,0,0,1,.09.43.65.65,0,0,1-.2.37.75.75,0,0,1-.6.21,1,1,0,0,1-.62-.34.9.9,0,0,1-.28-.65A.7.7,0,0,1,13.93,14.31Zm.64.21c-.23-.24-.43-.28-.61-.11a.39.39,0,0,0-.1.36,1.05,1.05,0,0,0,.24.47l.6-.55Z" transform="translate(-1 -9)"/><path d="M16.29,14.63l-1.15-2.06s0,0-.07,0l-.17.09,0-.06.17-.1a2,2,0,0,0,.29-.18l1.22,2.19a.05.05,0,0,0,.08,0l.16-.09,0,.06-.68.38,0-.06.16-.1S16.3,14.66,16.29,14.63Z" transform="translate(-1 -9)"/><path d="M20.57,13.71v-.06c0-.05,0-.08-.07-.08l-.12,0a1,1,0,0,1-.52.18,1.1,1.1,0,0,1-.84-.31,1.38,1.38,0,0,1-.38-1,1.38,1.38,0,0,1,.27-1,1.08,1.08,0,0,1,.82-.4,1.12,1.12,0,0,1,.53.11.31.31,0,0,0,.12,0,.08.08,0,0,0,.07-.09v-.07h.07l0,.69h-.08a.6.6,0,0,0-.25-.45.8.8,0,0,0-.49-.12.69.69,0,0,0-.58.35,1.5,1.5,0,0,0-.17.89,1.43,1.43,0,0,0,.26.87.7.7,0,0,0,.61.29.84.84,0,0,0,.48-.17.69.69,0,0,0,.21-.47h.07l0,.67Z" transform="translate(-1 -9)"/><path d="M22.46,13.18l0-.14,0-.14c.09-.3,0-.48-.17-.53a.24.24,0,0,0-.22,0,.27.27,0,0,0-.13.18.53.53,0,0,0,0,.21.27.27,0,0,1-.2,0c-.08,0-.1-.1-.07-.23A.47.47,0,0,1,22,12.3a.65.65,0,0,1,.46,0c.36.1.49.36.37.78l-.22.8q-.06.21.06.24a.14.14,0,0,0,.11,0,.23.23,0,0,0,.08-.11s0-.09,0-.13h.07a.3.3,0,0,1,0,.13.28.28,0,0,1-.14.2.28.28,0,0,1-.24,0,.25.25,0,0,1-.19-.17.51.51,0,0,1,0-.35l0-.07A.78.78,0,0,1,22,14a.45.45,0,0,1-.36,0,.38.38,0,0,1-.27-.2.4.4,0,0,1,0-.34.44.44,0,0,1,.28-.3.76.76,0,0,1,.56,0l.24.08Zm-.67.68a.38.38,0,0,0,.34-.11,1.06,1.06,0,0,0,.3-.47l-.11,0a.69.69,0,0,0-.48,0,.42.42,0,0,0-.22.27.31.31,0,0,0,0,.21A.18.18,0,0,0,21.79,13.86Z" transform="translate(-1 -9)"/><path d="M26,14.94l-.63.85s0,.05,0,.07l.15.11,0,.06L25,15.6l0-.06.11.08s0,0,.07,0l.66-.88a.45.45,0,0,0,.11-.3.27.27,0,0,0-.13-.22.38.38,0,0,0-.41,0,1.54,1.54,0,0,0-.55.52l-.3.4a.05.05,0,0,0,0,.08l.16.11,0,.06L24.09,15l.05-.06.1.08s.06,0,.07,0l.66-.89a.41.41,0,0,0,.12-.29.3.3,0,0,0-.13-.22c-.1-.08-.24-.07-.42,0a1.9,1.9,0,0,0-.55.53l-.29.39a0,0,0,0,0,0,.08l.11.08-.05.06-.58-.43,0-.06.16.11s.05,0,.07,0l.89-1.2a.05.05,0,0,0,0-.08L24.19,13l0-.06.16.12a1,1,0,0,0,.28.18l-.32.44c.3-.25.56-.29.8-.12a.49.49,0,0,1,.18.32.63.63,0,0,1-.12.43c.29-.25.55-.29.79-.11a.43.43,0,0,1,.19.32A.7.7,0,0,1,26,14.94Z" transform="translate(-1 -9)"/><path d="M26.13,16.81,27.35,16a0,0,0,0,0,0-.08l-.11-.15.07-.05.11.17a1.4,1.4,0,0,0,.21.26l-1.35.94s0,0,0,.07l.11.16-.06,0-.45-.64.07,0,.1.15A.05.05,0,0,0,26.13,16.81Zm1.7-1.17a.16.16,0,0,1,.08-.12.17.17,0,0,1,.14,0,.16.16,0,0,1,.12.08.23.23,0,0,1,0,.14.2.2,0,0,1-.08.12.19.19,0,0,1-.14,0,.17.17,0,0,1-.13-.08A.17.17,0,0,1,27.83,15.64Z" transform="translate(-1 -9)"/><path d="M26.83,18.05,29,17.12A.06.06,0,0,0,29,17L29,16.87l.07,0,.08.18a1.34,1.34,0,0,0,.15.3l-2.3,1s0,0,0,.07l.08.18-.07,0-.31-.72.07,0,.07.17S26.8,18.07,26.83,18.05Z" transform="translate(-1 -9)"/><path d="M27.27,19.34l2.3-.5s.05,0,0-.07l0-.19h.07l0,.19a2,2,0,0,0,.1.33l-2.45.54a0,0,0,0,0,0,.06l0,.19h-.07l-.17-.76.07,0,0,.19S27.23,19.35,27.27,19.34Z" transform="translate(-1 -9)"/><path d="M29.14,21.35a.53.53,0,0,1-.19.44.79.79,0,0,1-.54.14h-.16l0-1.09h0a1.11,1.11,0,0,0-.61.12.46.46,0,0,0-.23.36.54.54,0,0,0,.43.56l0,.07a.55.55,0,0,1-.37-.23.61.61,0,0,1-.13-.39.77.77,0,0,1,.26-.58.92.92,0,0,1,.67-.22,1,1,0,0,1,.67.24A.78.78,0,0,1,29.14,21.35Zm-.59.31c.33,0,.5-.11.5-.36a.38.38,0,0,0-.19-.32,1,1,0,0,0-.51-.15l0,.81Z" transform="translate(-1 -9)"/></svg>